HIERARCHY
ROOT Bip001_Pelvis
{
  OFFSET 34.4345 95.6767 -26.8758
  CHANNELS 6 Xposition Yposition Zposition Zrotation Xrotation Yrotation
  JOINT Bip001_Spine
  {
    OFFSET 1.4188e-005 10.2191 -0.0116013
    CHANNELS 3 Zrotation Xrotation Yrotation
    JOINT Bip001_L_Thigh
    {
      OFFSET 11.0458 -10.2192 0.0116197
      CHANNELS 3 Zrotation Xrotation Yrotation
      JOINT Bip001_L_Calf
      {
        OFFSET -0.707118 -44.0221 0.360014
        CHANNELS 3 Zrotation Xrotation Yrotation
        JOINT Bip001_L_Foot
        {
          OFFSET -0.651902 -40.5938 -3.56146
          CHANNELS 3 Zrotation Xrotation Yrotation
          JOINT Bip001_L_Toe0
          {
            OFFSET 0.0530839 -10.2181 13.1504
            CHANNELS 3 Zrotation Xrotation Yrotation
            End Site
            {
              OFFSET -1.02532e-005 0 7.55606
            }
          }
        }
      }
    }
    JOINT Bip001_R_Thigh
    {
      OFFSET -11.0458 -10.2191 0.0115893
      CHANNELS 3 Zrotation Xrotation Yrotation
      JOINT Bip001_R_Calf
      {
        OFFSET 0.706994 -44.0221 0.35984
        CHANNELS 3 Zrotation Xrotation Yrotation
        JOINT Bip001_R_Foot
        {
          OFFSET 0.651786 -40.5938 -3.5613
          CHANNELS 3 Zrotation Xrotation Yrotation
          JOINT Bip001_R_Toe0
          {
            OFFSET -0.0531479 -10.2181 13.1504
            CHANNELS 3 Zrotation Xrotation Yrotation
            End Site
            {
              OFFSET -1.02894e-005 0 7.55606
            }
          }
        }
      }
    }
    JOINT Bip001_Spine1
    {
      OFFSET 1.87041e-005 14.5736 1.08638
      CHANNELS 3 Zrotation Xrotation Yrotation
      JOINT Bip001_Spine2
      {
        OFFSET 2.24614e-005 14.5058 -1.69078
        CHANNELS 3 Zrotation Xrotation Yrotation
        JOINT Bip001_Neck
        {
          OFFSET 2.20278e-005 15.3945 -0.489414
          CHANNELS 3 Zrotation Xrotation Yrotation
          JOINT Bip001_L_Clavicle
          {
            OFFSET 6.06036 -0.000579998 0.00836775
            CHANNELS 3 Zrotation Xrotation Yrotation
            JOINT Bip001_L_UpperArm
            {
              OFFSET 11.5509 -0.0600302 0.00193952
              CHANNELS 3 Zrotation Xrotation Yrotation
              JOINT Bip001_L_Forearm
              {
                OFFSET 25.9523 0.0806089 -2.15551
                CHANNELS 3 Zrotation Xrotation Yrotation
                JOINT Bip001_L_Hand
                {
                  OFFSET 32.2475 0.153767 1.63968
                  CHANNELS 3 Zrotation Xrotation Yrotation
                  JOINT Bip001_L_Finger0
                  {
                    OFFSET 6.04639 -2.20976 5.90322
                    CHANNELS 3 Zrotation Xrotation Yrotation
                    End Site
                    {
                      OFFSET 4.22375 -1.43895 0.606485
                    }
                  }
                  JOINT Bip001_L_Finger1
                  {
                    OFFSET 11.0826 -0.704819 -0.198153
                    CHANNELS 3 Zrotation Xrotation Yrotation
                    End Site
                    {
                      OFFSET 6.20027 -0.397518 -0.0787166
                    }
                  }
                }
              }
            }
          }
          JOINT Bip001_R_Clavicle
          {
            OFFSET -6.06037 -0.000563197 0.00835105
            CHANNELS 3 Zrotation Xrotation Yrotation
            JOINT Bip001_R_UpperArm
            {
              OFFSET -11.5509 -0.0599978 0.00190698
              CHANNELS 3 Zrotation Xrotation Yrotation
              JOINT Bip001_R_Forearm
              {
                OFFSET -25.9523 0.0806822 -2.15589
                CHANNELS 3 Zrotation Xrotation Yrotation
                JOINT Bip001_R_Hand
                {
                  OFFSET -32.2475 0.153859 1.63989
                  CHANNELS 3 Zrotation Xrotation Yrotation
                  JOINT Bip001_R_Finger0
                  {
                    OFFSET -6.04641 -2.20976 5.90317
                    CHANNELS 3 Zrotation Xrotation Yrotation
                    End Site
                    {
                      OFFSET -4.22376 -1.43895 0.60647
                    }
                  }
                  JOINT Bip001_R_Finger1
                  {
                    OFFSET -11.0826 -0.704794 -0.198182
                    CHANNELS 3 Zrotation Xrotation Yrotation
                    End Site
                    {
                      OFFSET -6.20028 -0.397504 -0.0787333
                    }
                  }
                }
              }
            }
          }
          JOINT Bip001_Head
          {
            OFFSET 1.09673e-005 11.2744 2.05948
            CHANNELS 3 Zrotation Xrotation Yrotation
            End Site
            {
              OFFSET 2.89576e-005 20.8808 -2.77728e-005
            }
          }
        }
      }
    }
  }
}
MOTION
Frames:	11
Frame Time:	0.04
32.526 95.2982 -31.8725 0.872982 -2.66795 -8.91686 0.482093 2.44822 -1.05338 4.61006 -0.117093 15.5548 0.0418818 9.22864 3.53246 1.43839 -3.9044 0.0199502 1.50961 -5.66711 -0.569983 -5.65347 -7.77026 2.64798 -0.120256 17.1879 2.70371 -6.56113 -10.0106 1.50971 2.80715 -9.36918 2.96202 1.01058 4.88707 -2.13029 1.01058 4.88708 -2.13029 5.96127 -7.97671 3.72045 -28.1764 11.2876 -4.69051 -54.5993 45.0876 4.87528 16.7007 -1.82355 -27.7983 7.32079 1.476 -5.83999 -3.18055e-015 -3.18055e-015 -1.59028e-015 -1.98626e-031 -4.77083e-015 -2.38542e-015 20.6014 13.1327 11.9048 57.4332 24.6476 -9.46012 -24.2237 11.3845 14.6666 1.1045 -5.72966 3.67763 -2.38542e-015 0 -0 -3.18055e-015 3.18056e-015 -1.59028e-015 -3.01878 -5.82759 5.50583 
32.4548 95.1759 -31.9117 0.751357 -2.82885 -10.9438 0.586379 2.47951 -1.25218 4.58567 0.15885 16.7509 0.000954151 9.86618 4.30343 1.20473 -4.42141 0.0282552 1.32712 -5.81815 -0.329065 -5.44431 -8.49741 4.02341 -0.297298 18.0434 2.74221 -6.43328 -10.3776 2.31521 2.82031 -9.43464 3.02177 1.22863 4.9454 -2.53325 1.22864 4.9454 -2.53326 5.79006 -6.77706 5.21442 -27.6197 10.8768 -6.5038 -55.9267 45.8193 5.30322 17.3787 0.485196 -26.5139 5.58337 2.16214 -4.5108 -3.18055e-015 1.59028e-015 -0 -3.18055e-015 0 3.97569e-016 20.7265 10.8629 9.05907 58.2625 29.8171 -8.9835 -24.2748 8.18881 12.995 1.55469 -5.5088 2.60471 -1.59028e-015 -9.54166e-015 -3.97569e-015 -3.97252e-031 -9.54167e-015 -2.38542e-015 -3.08285 -6.72771 6.99072 
32.3817 94.978 -32.0418 0.653531 -2.79989 -13.3051 0.68152 2.51845 -1.47396 4.51384 0.0842903 17.9177 -0.0156406 10.7551 5.30347 2.37207 -4.31906 0.0141373 1.70923 -6.85425 -0.456938 -5.18179 -9.78382 5.57206 -0.301316 19.4035 3.44949 -6.59005 -10.8116 2.58636 2.83191 -9.48311 3.07597 1.43463 5.01831 -2.98201 1.42978 5.01831 -2.98214 5.60944 -6.02759 6.86321 -26.9394 10.8737 -8.17808 -57.4545 46.3376 5.7797 17.6676 0.970614 -25.6267 4.21701 2.46725 -3.30634 -3.18055e-015 -3.18055e-015 7.95139e-016 -3.18055e-015 -2.38542e-015 7.95139e-016 20.9414 9.05235 6.23173 59.5056 28.8297 -8.7464 -26.244 7.61373 13.956 2.55106 -5.39037 2.38285 -7.95139e-016 0 -7.95139e-016 -4.41391e-032 -3.18056e-015 -7.95139e-016 -3.11636 -7.60593 8.59908 
32.2734 94.7058 -32.1798 0.575092 -2.84939 -15.2624 0.702125 2.62608 -1.68935 4.93435 -0.456597 17.5969 -0.626355 12.7738 7.55479 1.97415 -5.70948 0.0527208 1.41593 -6.72456 -0.0897674 -4.69715 -11.0826 6.6933 -0.632538 21.0356 4.12905 -6.86154 -11.4296 2.94734 2.89996 -9.75642 3.24357 1.48386 5.23007 -3.41618 1.48387 5.23009 -3.4162 5.45303 -5.79777 8.24041 -26.0184 11.1858 -9.62559 -58.4933 45.5617 5.73843 17.3052 0.0953666 -25.197 4.35087 2.45417 -2.89878 -3.18055e-015 0 -3.97569e-016 -3.18055e-015 0 -1.98785e-016 22.2423 7.96237 3.82611 58.5167 21.0847 -8.84976 -27.0698 8.74906 19.8226 1.57041 -4.95217 2.36834 6.36111e-015 0 1.59028e-015 4.77083e-015 0 1.59028e-015 -2.64091 -8.32107 9.8418 
32.0932 94.3813 -32.2291 0.0601492 -3.48249 -16.946 0.775411 2.87008 -1.83809 5.69116 -0.598061 17.6923 -1.49363 15.0566 8.66956 3.70423 -6.03232 0.0549948 1.56453 -7.69115 -0.0774144 -4.03544 -11.6983 8.99406 -0.237575 22.699 4.12601 -7.34209 -11.9694 2.36106 2.99933 -10.0068 3.28398 1.64581 5.71348 -3.72194 1.64581 5.71349 -3.72194 5.13567 -5.64976 9.30346 -24.7957 11.4504 -11.1823 -59.147 43.9717 5.34789 16.3126 -1.21726 -25.4167 5.77305 2.18731 -3.1087 -3.18055e-015 0 -1.98785e-016 0 0 -1.98785e-016 23.3219 6.94863 1.6554 59.121 16.314 -9.8601 -26.6613 4.98319 24.5346 -0.258312 -5.92734 3.58784 -2.78298e-015 1.59028e-015 3.18055e-015 3.97569e-016 1.59028e-015 -0 -2.17912 -8.93311 10.7174 
31.9407 93.7954 -32.3092 -0.527073 -4.22614 -18.1447 0.838257 3.11908 -2.01797 6.79283 -1.46281 18.7957 -2.15522 19.034 8.35419 5.80144 -6.79959 0.0862392 1.70052 -8.73734 0.0342825 -3.26595 -12.6049 9.68407 -0.495438 25.4815 4.92779 -7.86088 -13.1632 2.22161 3.18077 -10.4254 3.31472 1.79013 6.20628 -4.09049 1.79014 6.2063 -4.09052 4.50389 -6.20277 10.0895 -23.1285 12.0856 -12.057 -59.6117 42.6551 5.02635 15.397 -2.96618 -26.3659 6.88885 1.93672 -3.54225 6.36111e-015 7.95139e-016 -7.95139e-016 3.18055e-015 0 -3.97569e-016 24.4797 6.82605 0.192225 61.0192 12.34 -11.4812 -26.2901 -2.50292 28.2669 1.30274 -7.12747 5.85187 1.39149e-015 -2.38542e-015 3.18055e-015 9.93923e-017 -1.98785e-015 6.36111e-015 -1.29913 -8.44045 11.0947 
31.7803 93.0312 -32.4433 -1.11002 -4.93229 -18.7409 0.919084 3.34433 -2.221 8.50905 -2.55102 17.9113 -4.43211 23.4415 10.4109 7.45134 -8.32552 0.192348 1.908 -9.23574 0.0106973 -2.39832 -13.8039 11.8065 0.117793 28.9471 4.91908 -9.11754 -14.3014 0.316014 3.29125 -11.0122 3.84818 1.97832 6.64992 -4.50697 1.9783 6.64992 -4.50746 4.17515 -4.79233 11.2732 -22.0632 11.0423 -13.7855 -59.7167 41.9728 4.55169 15.252 -4.49853 -27.4348 7.25073 1.32329 -4.25038 -6.36111e-015 -7.95139e-016 -1.19271e-015 -9.54166e-015 -7.95139e-016 -1.19271e-015 24.733 4.72952 -1.09259 62.4916 5.16031 -12.2281 -26.4511 -6.88412 32.7881 -0.0579183 -7.98991 6.12403 -8.82781e-032 3.18055e-015 1.59028e-015 7.95139e-016 0 3.18055e-015 -1.82949 -10.7086 12.4458 
31.7642 92.1655 -32.4145 -1.58086 -5.92301 -18.6506 0.945637 3.55264 -2.49958 9.71581 -3.3053 18.5325 -5.48525 27.5467 10.0728 8.68728 -9.95114 0.337769 1.93616 -9.66005 0.186624 -2.10413 -14.7522 13.4274 1.54954 32.6716 4.21601 -10.3577 -15.6946 -1.35076 3.41033 -11.4776 4.12628 2.05055 7.06001 -5.07214 2.05056 7.06003 -5.07207 3.64511 -3.91187 12.3365 -21.0227 10.3393 -14.884 -59.5314 41.8513 4.72363 15.4633 -5.42778 -29.116 8.60956 0.574299 -5.14331 -6.36111e-015 1.59028e-015 -7.95139e-016 -6.36111e-015 0 3.97569e-016 25.7884 2.97538 -2.69735 61.9352 -6.69356 -13.5141 -25.2519 -10.0283 41.1858 -3.82345 -9.15192 4.42985 -5.56597e-015 0 -0 -1.03368e-014 3.18056e-015 4.77083e-015 -1.86306 -12.4324 13.4263 
31.8061 91.3794 -32.1625 -2.14755 -7.21343 -18.0974 0.946781 3.70626 -2.79606 10.9353 -3.14979 19.3639 -6.62773 30.763 9.27475 10.0178 -11.5147 0.523234 2.16438 -10.1627 0.105929 -2.17469 -14.8029 13.6112 2.8534 35.7438 4.18375 -11.5843 -16.9081 -2.70203 3.54623 -11.7743 4.14223 2.08051 7.36121 -5.67092 2.0805 7.36122 -5.67091 3.73734 -3.02216 13.2409 -20.5873 9.57447 -15.5199 -59.9316 42.2422 5.59085 15.1277 -7.59294 -30.6345 10.2127 -0.864682 -6.52599 -3.18055e-015 0 7.95139e-016 0 0 -1.19271e-015 26.0898 1.44116 -4.03071 58.2175 -23.4946 -15.5048 -24.8536 -6.96363 53.6124 -9.053 -8.7209 3.51916 2.38542e-015 1.27222e-014 -9.14409e-015 7.95139e-016 1.27222e-014 -6.75868e-015 -2.52283 -13.0247 14.4916 
31.8027 90.5465 -31.6729 -2.92616 -8.47555 -18.0883 0.975903 3.79278 -2.74796 12.2697 -2.60445 21.6567 -6.74387 34.1907 7.04334 11.0275 -13.3813 0.752834 2.41455 -10.2672 -0.0648067 -1.83823 -14.4689 14.0675 3.64185 38.5913 3.66084 -12.5595 -18.1868 -3.70422 3.70033 -12.197 4.28716 2.14379 7.53391 -5.57696 2.1448 7.53389 -5.57789 3.87199 -2.7152 13.4957 -20.2367 9.26648 -15.8744 -60.5316 42.1715 6.45096 14.044 -9.46892 -31.4846 12.9366 -1.8443 -7.95893 3.18055e-015 -3.18055e-015 -2.38542e-015 -3.18055e-015 -4.77083e-015 -2.38542e-015 25.1235 0.739683 -5.43654 50.0126 -42.3309 -18.6609 -29.0781 1.9835 68.7499 -11.5679 -9.91083 5.06388 7.7526e-015 9.54166e-015 -1.59028e-015 7.15625e-015 6.36111e-015 1.98785e-016 -3.32322 -12.6452 14.8726 
32.0952 89.9232 -31.2283 -3.33479 -9.50356 -16.5955 0.961962 3.78582 -2.68486 12.9033 -2.7443 21.4833 -6.79332 36.8777 5.89258 11.7009 -15.0533 0.97859 2.48389 -10.2058 -0.0957141 -2.30431 -13.768 12.3996 3.98232 40.4461 3.54754 -13.2319 -19.225 -4.22539 3.85351 -12.5808 4.38141 2.10541 7.52177 -5.44916 2.10154 7.52176 -5.45004 4.04473 -3.09235 13.0947 -19.9435 9.60496 -16.3136 -60.5707 41.4235 7.03406 13.2617 -10.2905 -32.1789 13.3172 -0.79954 -6.98593 3.18055e-015 -1.59028e-015 -4.77083e-015 3.18055e-015 -3.18056e-015 -4.77083e-015 24.4346 0.969914 -6.39174 35.6626 -58.4789 -25.1155 -30.6892 6.71011 84.2931 -11.4746 -10.4182 5.52526 -3.97569e-016 -1.59028e-014 -1.98785e-016 -1.19271e-015 -1.59028e-014 1.98785e-016 -3.58711 -11.7141 14.5541 
